HIERARCHY
ROOT Hips
{
	OFFSET -0.179506 -22.333345 2.821913
	CHANNELS 6 Xposition Yposition Zposition Zrotation Yrotation Xrotation 
	JOINT LeftUpLeg
	{
		OFFSET 6.951974 -9.140623 -0.681533
		CHANNELS 3 Zrotation Yrotation Xrotation
		JOINT LeftLeg
		{
			OFFSET 3.427654 -37.519855 -0.449580
			CHANNELS 3 Zrotation Yrotation Xrotation
			JOINT LeftFoot
			{
				OFFSET -1.359570 -39.796059 -4.369333
				CHANNELS 3 Zrotation Yrotation Xrotation
				JOINT LeftToe
				{
					OFFSET 2.635814 -5.579078 11.928840
					CHANNELS 3 Zrotation Yrotation Xrotation
					End Site
					{
						OFFSET 0.000000 0.000000 0.000000
					}
				}
			}
		}
	}
	JOINT RightUpLeg
	{
		OFFSET -6.767048 -9.052170 -0.431982
		CHANNELS 3 Zrotation Yrotation Xrotation
		JOINT RightLeg
		{
			OFFSET -3.829005 -38.256897 -0.885003
			CHANNELS 3 Zrotation Yrotation Xrotation
			JOINT RightFoot
			{
				OFFSET 1.577377 -39.841461 -4.231180
				CHANNELS 3 Zrotation Yrotation Xrotation
				JOINT RightToe
				{
					OFFSET -2.537174 -4.814398 12.334795
					CHANNELS 3 Zrotation Yrotation Xrotation
					End Site
					{
						OFFSET 0.000000 0.000000 0.000000
					}
				}
			}
		}
	}
	JOINT Spine
	{
		OFFSET -0.253288 10.896323 -2.669631
		CHANNELS 3 Zrotation Yrotation Xrotation
		JOINT Spine1
		{
			OFFSET 0.548704 13.518043 0.109247
			CHANNELS 3 Zrotation Yrotation Xrotation
			JOINT Spine2
			{
				OFFSET 0.145701 5.292222 2.542457
				CHANNELS 3 Zrotation Yrotation Xrotation
				JOINT Neck
				{
					OFFSET -0.277840 21.387037 -4.285703
					CHANNELS 3 Zrotation Yrotation Xrotation
					JOINT Head
					{
						OFFSET 0.515184 6.496960 5.134897
						CHANNELS 3 Zrotation Yrotation Xrotation
						End Site
						{
							OFFSET 0.000000 0.000000 0.000000
						}
					}
				}
				JOINT LeftShoulder
				{
					OFFSET 7.884473 12.174932 -3.408961
					CHANNELS 3 Zrotation Yrotation Xrotation
					JOINT LeftArm
					{
						OFFSET 9.097692 3.046888 -0.886815
						CHANNELS 3 Zrotation Yrotation Xrotation
						JOINT LeftForeArm
						{
							OFFSET 25.961220 -1.277207 -2.745643
							CHANNELS 3 Zrotation Yrotation Xrotation
							JOINT LeftHand
							{
								OFFSET 24.923361 0.898606 -0.117091
								CHANNELS 3 Zrotation Yrotation Xrotation
								End Site
								{
									OFFSET 0.000000 0.000000 0.000000
								}
							}
						}
					}
				}
				JOINT RightShoulder
				{
					OFFSET -8.175920 11.883285 -3.861528
					CHANNELS 3 Zrotation Yrotation Xrotation
					JOINT RightArm
					{
						OFFSET -9.601238 3.255117 -0.914307
						CHANNELS 3 Zrotation Yrotation Xrotation
						JOINT RightForeArm
						{
							OFFSET -25.374195 -1.332924 -2.140099
							CHANNELS 3 Zrotation Yrotation Xrotation
							JOINT RightHand
							{
								OFFSET -25.529810 0.777228 -0.555919
								CHANNELS 3 Zrotation Yrotation Xrotation
								End Site
								{
									OFFSET 0.000000 0.000000 0.000000
								}
							}
						}
					}
				}
			}
		}
	}
}
MOTION
Frames: 18
Frame Time: 0.033333
-0.351451 41.597973 90.032799 -131.970341 3.035397 83.569132 10.633802 6.863372 -2.947458 -5.141739 8.640502 29.918223 3.001683 15.174106 -30.932141 nan nan nan -11.381555 -10.356457 -13.655396 2.610763 -11.535165 20.380563 2.413890 -6.806793 -7.541263 nan nan nan -5.469708 1.903789 2.389332 6.929886 -5.173369 12.473600 0.449805 0.232012 -6.505817 3.600848 -20.258123 12.899644 2.444770 -15.595473 15.781182 -18.174944 -7.881575 4.352634 -60.155653 -36.871111 30.013510 172.002894 -63.924047 -144.206947 -5.814776 -21.542067 -9.410413 18.772929 7.928026 -2.715634 34.402637 23.184510 -2.807340 -86.725812 51.747233 -69.054833 3.355246 6.437031 -5.036889 
-0.315851 41.607780 90.011360 -131.962114 3.179777 83.514298 10.844223 6.903031 -2.869322 -5.098217 8.435890 29.873061 2.968448 15.379216 -30.999333 nan nan nan -11.233858 -10.243061 -13.440015 2.730162 -11.406903 20.091508 2.544118 -7.076531 -7.301556 nan nan nan -5.243244 1.837962 2.374438 6.847568 -5.182809 12.682365 0.327641 0.231508 -6.439610 3.909656 -20.247140 12.316185 2.166418 -15.642781 16.259481 -18.044483 -7.911691 4.118926 -59.922628 -37.369534 29.964800 172.178644 -63.729701 -144.641838 -5.779135 -20.938319 -9.568653 18.560413 7.836021 -2.904437 34.660781 23.348007 -2.758207 -86.820923 51.842893 -69.304014 3.090889 6.065724 -5.066315 
-0.295586 41.602905 90.020531 -131.946980 3.242879 83.440310 10.946121 6.933739 -2.758914 -5.158153 8.363950 29.754281 2.955519 15.367990 -30.999014 nan nan nan -11.160841 -10.192567 -13.267095 2.761685 -11.306493 19.874074 2.649692 -7.155502 -7.155178 nan nan nan -5.186843 1.852348 2.328680 6.864163 -5.179372 12.799824 0.325533 0.245043 -6.357628 3.957428 -20.320008 12.125130 1.971761 -15.643635 16.432273 -17.856138 -7.934004 4.137689 -60.652817 -37.334096 30.175149 171.955976 -63.606463 -144.575193 -6.202000 -20.525389 -9.975063 18.397364 7.785042 -2.936741 34.746196 23.477106 -2.842915 -86.854586 51.799925 -69.391378 3.184358 5.807076 -5.049359 
-0.276740 41.572346 90.029556 -131.910125 3.196199 83.499347 10.883646 6.918161 -2.855721 -5.118596 8.350183 29.776448 2.968561 15.476596 -30.970904 nan nan nan -11.197787 -10.221474 -13.313923 2.782802 -11.247395 19.800330 2.660363 -7.258247 -7.083541 nan nan nan -5.204409 1.858018 2.212010 6.803009 -5.237983 12.963932 0.281563 0.243596 -6.489148 3.893443 -20.407340 12.118255 1.976663 -15.581293 16.618238 -18.042011 -8.177836 4.237402 -59.817580 -37.664708 29.797948 171.998788 -63.451520 -144.824977 -6.050841 -20.144608 -9.751356 18.455771 7.893506 -2.892104 34.673899 23.392081 -2.941597 -86.885222 51.833503 -69.526105 3.064979 5.692247 -4.939912 
-0.264405 41.525375 90.039459 -131.858804 3.118562 83.627574 10.768795 6.953954 -3.051477 -5.071689 8.412065 29.810736 2.982206 15.436655 -30.938349 nan nan nan -11.279558 -10.223812 -13.426887 2.764678 -11.338731 19.725963 2.748905 -7.290284 -6.995965 nan nan nan -5.271389 1.789377 2.114588 6.738692 -5.261498 12.915710 0.263068 0.242904 -6.499442 3.847667 -20.277251 12.160760 2.074646 -15.438114 16.500004 -18.115277 -8.195887 4.260057 -59.551623 -37.650029 29.678014 172.039742 -63.408326 -144.774733 -5.652617 -20.261655 -9.562378 18.429539 7.852171 -2.901250 34.838108 23.443653 -2.902800 -86.755513 51.927197 -69.374619 2.716802 5.825378 -4.952602 
-0.218623 41.507156 89.982666 -131.856736 3.201007 83.329924 11.097004 7.314918 -2.809842 -5.274952 7.890646 29.931151 3.426216 14.791638 -30.456793 nan nan nan -11.114968 -10.302083 -13.090229 2.718952 -11.047733 19.621908 1.980442 -7.410510 -7.316229 nan nan nan -6.013431 2.397646 2.022131 7.302884 -5.067800 14.234898 0.753653 0.257119 -6.908385 4.717164 -20.464164 10.841514 1.685402 -15.752104 16.243341 -17.677605 -8.748536 4.535002 -60.971783 -38.129641 30.584616 170.846914 -63.901237 -144.058011 -5.714875 -21.034646 -9.360616 17.940265 7.104845 -3.992787 34.994416 23.551023 -2.815119 -86.495616 51.857433 -68.816263 3.311193 5.784657 -4.935129 
-0.218781 41.458241 89.972130 -131.843652 3.236251 83.255344 11.118223 7.381107 -2.631793 -5.426854 7.777771 29.615735 3.222870 14.710373 -30.282634 nan nan nan -11.043666 -10.230734 -12.961305 2.658975 -10.964456 19.469493 1.917078 -7.548207 -7.337751 nan nan nan -5.963687 2.342092 2.158208 7.249897 -5.063547 14.060563 0.759427 0.294818 -6.709092 4.713851 -20.325302 10.761535 1.794966 -15.682072 16.050742 -17.506924 -8.782433 4.424433 -61.198908 -38.048943 30.653745 170.694908 -64.092060 -143.637488 -5.338115 -21.445735 -9.631619 17.824075 7.120053 -4.101720 35.197551 23.675742 -2.714778 -86.217639 51.724123 -68.416851 3.034519 5.915537 -5.368612 
-0.197490 41.410854 89.961929 -131.869411 3.248225 83.258483 11.100572 7.338539 -2.630900 -5.485773 7.769266 29.498637 3.113154 14.829116 -30.187704 nan nan nan -10.990534 -10.225679 -12.996883 2.621281 -10.911154 19.415138 1.882982 -7.595708 -7.279003 nan nan nan -5.910545 2.309690 2.216772 7.189494 -5.054333 13.865035 0.727134 0.342555 -6.552383 4.676031 -20.368617 10.699028 1.874974 -15.617049 16.126744 -17.417016 -8.795633 4.398808 -61.213443 -38.117294 30.633146 170.624765 -64.259123 -143.546037 -5.259090 -21.448247 -9.961108 17.773112 7.160400 -4.098709 35.247921 23.758268 -2.719091 -85.866051 51.608379 -68.081841 3.105152 5.884990 -5.536504 
-0.175085 41.374722 89.976891 -131.860378 3.269274 83.292509 11.084529 7.319810 -2.706842 -5.496310 7.724305 29.472026 3.056518 14.895574 -30.137603 nan nan nan -10.966919 -10.294251 -13.025177 2.648216 -10.887093 19.328720 1.860832 -7.568067 -7.172410 nan nan nan -5.809090 2.271894 2.239501 7.120645 -5.048761 13.766596 0.682776 0.351481 -6.580580 4.578415 -20.402268 10.796551 1.914536 -15.532772 16.178789 -17.497649 -8.815128 4.490960 -61.091439 -38.123448 30.476095 170.651770 -64.405897 -143.586344 -5.287644 -21.426913 -9.981431 17.773141 7.230682 -3.986570 35.262769 23.766343 -2.826894 -85.538485 51.555886 -67.812110 3.196146 5.921274 -5.447909 
-0.155974 41.342106 90.011520 -131.812447 3.304553 83.302043 11.061497 7.311159 -2.767109 -5.394586 7.676455 29.464522 3.027841 14.813294 -30.115482 nan nan nan -10.951637 -10.325316 -13.002669 2.694689 -10.927904 19.226484 1.942329 -7.556534 -7.092541 nan nan nan -5.648583 2.252388 2.366236 7.031884 -5.020559 13.628888 0.656137 0.205259 -6.725083 4.415677 -20.363051 11.094689 1.911103 -15.472905 16.172445 -17.673358 -8.832497 4.564222 -60.972732 -37.912150 30.314003 170.431433 -64.526020 -143.307731 -5.442665 -21.557925 -9.906555 17.844306 7.385926 -3.860570 35.268508 23.727851 -2.837258 -85.207407 51.451257 -67.481899 3.236289 6.036497 -5.271242 
-0.123533 41.302959 90.024178 -131.760955 3.325673 83.305138 11.061991 7.352150 -2.845472 -5.243393 7.663813 29.520264 3.148914 14.690281 -30.095646 nan nan nan -10.907080 -10.360218 -12.994736 2.663654 -10.964939 19.154510 1.991287 -7.541352 -7.047321 nan nan nan -5.635883 2.263694 2.426347 7.024568 -4.999253 13.556850 0.682801 0.102261 -6.736556 4.440601 -20.298876 11.121962 1.821786 -15.533823 16.243283 -17.704501 -8.879739 4.575800 -61.055242 -37.780502 30.295842 170.098700 -64.713218 -142.979167 -5.519940 -21.621292 -9.754190 17.840906 7.489772 -3.794694 35.235213 23.752119 -2.816002 -84.821889 51.307031 -67.179990 3.096103 6.083472 -5.266194 
-0.100801 41.260414 90.020554 -131.761594 3.334707 83.306168 11.095812 7.466796 -2.903505 -5.206628 7.651617 29.571661 3.274216 14.648480 -30.070359 nan nan nan -10.856709 -10.372826 -12.979885 2.600018 -10.939390 19.062468 1.970021 -7.522217 -7.019575 nan nan nan -5.656385 2.223589 2.476209 7.022431 -4.987214 13.438565 0.702593 0.101331 -6.658456 4.518184 -20.216840 11.109330 1.760684 -15.594034 16.216385 -17.644293 -8.861687 4.570671 -61.174761 -37.750370 30.312786 169.955319 -64.901948 -142.891508 -5.721582 -21.484077 -9.598611 17.793148 7.546738 -3.710912 35.262041 23.852899 -2.868975 -84.427780 51.239256 -66.859384 3.258665 5.969183 -5.249957 
-0.089702 41.224930 90.018143 -131.760293 3.327755 83.261943 11.129054 7.574388 -2.864812 -5.278296 7.534852 29.535364 3.358691 14.634409 -30.058686 nan nan nan -10.842109 -10.384436 -12.911115 2.539579 -10.904407 18.981934 1.975354 -7.487812 -6.978851 nan nan nan -5.659532 2.154829 2.547607 6.989947 -5.035507 13.464612 0.653786 0.149594 -6.710564 4.627343 -20.109947 11.088356 1.742013 -15.606971 16.247258 -17.565932 -8.758461 4.563815 -61.342657 -37.739969 30.397446 169.945455 -65.080659 -142.956950 -5.830935 -21.210702 -9.457324 17.849370 7.558651 -3.546597 35.264363 24.068812 -2.956907 -84.040191 51.197742 -66.525263 3.289412 5.874117 -5.069750 
-0.072982 41.194088 90.017776 -131.819988 3.298257 83.226671 11.119644 7.610509 -2.799775 -5.365926 7.472559 29.473675 3.439691 14.669399 -30.089965 nan nan nan -10.858683 -10.341305 -12.881628 2.528147 -10.843834 18.917760 2.011705 -7.442802 -6.947618 nan nan nan -5.617723 2.073300 2.551046 6.902356 -5.091483 13.640993 0.537526 0.247019 -6.853542 4.746089 -19.989020 11.095902 1.742009 -15.610774 16.315825 -17.435301 -8.658901 4.499173 -61.463273 -37.623463 30.522386 169.836954 -65.270739 -142.900638 -5.636346 -21.050773 -9.582520 17.886595 7.578027 -3.490614 35.412950 24.227549 -2.903276 -83.744110 51.088309 -66.361628 3.019820 5.926059 -5.088603 
-0.052928 41.158928 90.026878 -131.829677 3.258060 83.258235 11.043545 7.578147 -2.852788 -5.374374 7.513892 29.458715 3.461998 14.688065 -30.049891 nan nan nan -10.889022 -10.348143 -12.895093 2.517546 -10.835235 18.799632 2.020784 -7.445207 -6.891115 nan nan nan -5.613288 2.017401 2.491080 6.831852 -5.142074 13.690751 0.467520 0.329391 -6.869490 4.778446 -19.940285 11.172608 1.835407 -15.561214 16.314581 -17.353788 -8.625058 4.425324 -61.434576 -37.477268 30.575277 169.747376 -65.546112 -142.803159 -5.166057 -21.087254 -9.662642 17.894739 7.556936 -3.516410 35.486043 24.248545 -2.845389 -83.482204 51.117006 -66.235150 2.911121 6.079174 -5.093556 
-0.038888 41.116577 90.035088 -131.772637 3.254383 83.281484 11.021759 7.534797 -2.942218 -5.406674 7.547872 29.510224 3.438362 14.652839 -29.985026 nan nan nan -10.903474 -10.364707 -12.854982 2.512764 -10.853087 18.647001 1.934028 -7.483786 -6.829032 nan nan nan -5.635517 1.997687 2.483585 6.818938 -5.171927 13.580109 0.491159 0.337442 -6.744433 4.847598 -19.939055 11.116253 1.782814 -15.544488 16.376260 -17.297949 -8.679666 4.400375 -61.361118 -37.378930 30.550112 169.504277 -65.764413 -142.488887 -5.048722 -21.192168 -9.536042 17.767348 7.578230 -3.532991 35.502349 24.119574 -2.757744 -83.283324 51.170354 -65.939561 2.981054 6.067763 -5.029385 
-0.034905 41.069237 90.037949 -131.747086 3.270620 83.257623 11.036950 7.546961 -2.949406 -5.449701 7.541674 29.510011 3.428144 14.656304 -30.022088 nan nan nan -10.913059 -10.425098 -12.790184 2.533150 -10.860718 18.540337 1.927726 -7.482254 -6.749840 nan nan nan -5.631586 2.037744 2.522279 6.841204 -5.156927 13.527011 0.534581 0.319722 -6.655986 4.849500 -19.977050 11.084547 1.788066 -15.510586 16.266496 -17.360304 -8.769000 4.431446 -61.230890 -37.388969 30.467542 169.419689 -65.858543 -142.386783 -5.195377 -21.074500 -9.332773 17.672015 7.612321 -3.536822 35.435693 24.000262 -2.791499 -83.184593 51.224966 -65.785131 3.116628 5.937760 -5.008369 
-0.016137 41.017590 90.036316 -131.737271 3.284322 83.292379 11.037773 7.568728 -3.032637 -5.416256 7.581375 29.524838 3.478765 14.646390 -30.045691 nan nan nan -10.909537 -10.497094 -12.828232 2.548576 -10.918257 18.484763 1.952643 -7.453612 -6.659762 nan nan nan -5.632059 2.111409 2.496282 6.876244 -5.122936 13.579580 0.570397 0.254783 -6.698635 4.823218 -19.950515 11.057873 1.798516 -15.488652 16.193349 -17.439870 -8.848164 4.493562 -61.101267 -37.388299 30.379143 169.322246 -65.851591 -142.277612 -5.359446 -20.973114 -9.115581 17.591776 7.634868 -3.569915 35.488926 23.896534 -2.741897 -83.174470 51.180667 -65.874526 3.083440 5.899744 -5.294944 
